<svg width="133" height="34" viewBox="0 0 133 34" fill="none" xmlns="http://www.w3.org/2000/svg">
<path d="M78.9951 8.42029C80.3855 8.42031 81.6335 8.75364 82.7383 9.42029C83.8429 10.0679 84.7001 10.9826 85.3096 12.1635C85.938 13.3252 86.2519 14.6488 86.252 16.1342C86.252 17.6197 85.938 18.9533 85.3096 20.1342C84.7001 21.2959 83.8429 22.2107 82.7383 22.8773C81.6335 23.5249 80.3855 23.849 78.9951 23.849C77.7951 23.849 76.7283 23.6103 75.7949 23.1342C74.8618 22.639 74.1002 22.0297 73.5098 21.306V29.4203H70.2236V8.70642H72.6807L73.3662 11.1058C73.9757 10.363 74.7567 9.73436 75.709 9.22009C76.6614 8.68676 77.757 8.42029 78.9951 8.42029ZM94.8691 19.4203H95.3262L99.127 8.70642H102.47L96.3838 25.4203C95.8695 26.8298 95.2028 27.8493 94.3838 28.4779C93.5838 29.1064 92.5075 29.4203 91.1553 29.4203H88.8975L88.6123 26.4203H91.3838C91.9359 26.4203 92.3549 26.2967 92.6406 26.0492C92.9453 25.8207 93.2026 25.411 93.4121 24.8207L93.584 24.3636L86.9834 8.70642H90.498L94.8691 19.4203ZM60.5166 8.42029C62.4211 8.42037 63.9163 9.02025 65.002 10.2201C66.1067 11.401 66.6591 13.0678 66.6592 15.2201V23.5629H64.2305L63.5449 21.2201C63.1259 21.9249 62.5065 22.5442 61.6875 23.0775C60.8685 23.5917 59.8972 23.849 58.7734 23.849C57.783 23.849 56.8879 23.6484 56.0879 23.2484C55.3069 22.8484 54.6969 22.2867 54.2588 21.5629C53.8208 20.8391 53.6016 20.02 53.6016 19.1058C53.6016 17.6965 54.1542 16.5728 55.2588 15.7347C56.3826 14.8776 58.0113 14.4486 60.1445 14.4486H63.3447C63.2685 13.4583 62.9639 12.6772 62.4307 12.1058C61.9164 11.5154 61.2209 11.2201 60.3447 11.2201C59.6401 11.2201 59.0308 11.392 58.5166 11.7347C58.0023 12.0776 57.6207 12.4963 57.373 12.9916L54.3447 12.4779C54.7066 11.2208 55.4495 10.23 56.5732 9.50623C57.7161 8.78242 59.0309 8.42029 60.5166 8.42029ZM111.233 8.42029C112.871 8.42032 114.319 8.82979 115.576 9.6488C116.852 10.4488 117.757 11.5918 118.29 13.0775L115.205 13.5922C114.881 12.9445 114.376 12.4199 113.69 12.0199C113.024 11.62 112.271 11.4204 111.434 11.4203C110.1 11.4203 109.014 11.8586 108.176 12.7347C107.338 13.6108 106.919 14.744 106.919 16.1342C106.919 17.5245 107.338 18.6584 108.176 19.5345C109.014 20.4107 110.1 20.849 111.434 20.849C112.31 20.8489 113.091 20.6483 113.776 20.2484C114.462 19.8294 114.977 19.287 115.319 18.6205L118.404 19.1342C117.871 20.6389 116.947 21.8014 115.633 22.6205C114.319 23.4394 112.852 23.849 111.233 23.849C109.748 23.849 108.414 23.5249 107.233 22.8773C106.052 22.2107 105.129 21.2961 104.462 20.1342C103.814 18.9533 103.49 17.6198 103.49 16.1342C103.49 14.6487 103.814 13.3252 104.462 12.1635C105.129 10.9825 106.052 10.0679 107.233 9.42029C108.414 8.75369 109.748 8.42029 111.233 8.42029ZM41.7129 18.9056H42.1699L45.7412 8.70642H50.7412V23.5629H47.5986V12.5345H47.1416L43.2559 23.5629H40.4844L36.7695 12.5345H36.3125V23.5629H33.1699V8.70642H38.2842L41.7129 18.9056ZM132.641 23.5629H129.355V18.7914H126.727L123.584 23.5629H119.841L123.384 18.2777C122.412 17.8968 121.65 17.3062 121.098 16.5062C120.545 15.7063 120.27 14.7823 120.27 13.7347C120.27 12.7633 120.516 11.8961 121.012 11.1342C121.507 10.3724 122.193 9.78267 123.069 9.36365C123.946 8.92555 124.936 8.70642 126.041 8.70642H132.641V23.5629ZM60.2588 17.0199C58.0304 17.02 56.916 17.6681 56.916 18.9633C56.916 19.6108 57.1547 20.1253 57.6309 20.5062C58.107 20.887 58.7451 21.0775 59.5449 21.0775C60.6877 21.0775 61.6117 20.7061 62.3164 19.9633C63.0211 19.2204 63.373 18.2389 63.373 17.0199H60.2588ZM78.1953 11.3636C76.8048 11.3636 75.6711 11.8112 74.7949 12.7064C73.938 13.5825 73.5099 14.725 73.5098 16.1342C73.5098 17.5437 73.9378 18.6969 74.7949 19.5922C75.6711 20.4682 76.8049 20.9056 78.1953 20.9056C79.5665 20.9056 80.681 20.4682 81.5381 19.5922C82.3952 18.6969 82.8232 17.5437 82.8232 16.1342C82.8231 14.725 82.3949 13.5825 81.5381 12.7064C80.681 11.8113 79.5666 11.3637 78.1953 11.3636ZM126.041 11.5629C125.298 11.5629 124.698 11.7635 124.241 12.1635C123.784 12.5635 123.555 13.0871 123.555 13.7347C123.555 14.4013 123.784 14.9344 124.241 15.3344C124.698 15.7343 125.298 15.9349 126.041 15.9349H129.355V11.5629H126.041Z" fill="black"/>
<path d="M0.908203 13.8509C0.908203 7.08471 6.3933 1.59961 13.1595 1.59961C19.9257 1.59961 25.4108 7.08471 25.4108 13.8509V21.5243C25.4108 28.2905 19.9257 33.7756 13.1595 33.7756C6.3933 33.7756 0.908203 28.2905 0.908203 21.5243V13.8509Z" fill="url(#paint0_linear_28005_2278)"/>
<g filter="url(#filter0_f_28005_2278)">
<path d="M5.8457 11.8182C5.8457 7.56537 9.29327 4.1178 13.5461 4.1178V4.1178C17.7988 4.1178 21.2464 7.56537 21.2464 11.8182V18.1283C21.2464 22.3811 17.7988 25.8287 13.5461 25.8287V25.8287C9.29327 25.8287 5.8457 22.3811 5.8457 18.1283V11.8182Z" fill="url(#paint1_linear_28005_2278)"/>
</g>
<defs>
<filter id="filter0_f_28005_2278" x="1.8457" y="0.117798" width="23.4004" height="29.7109" filterUnits="userSpaceOnUse" color-interpolation-filters="sRGB">
<feFlood flood-opacity="0" result="BackgroundImageFix"/>
<feBlend mode="normal" in="SourceGraphic" in2="BackgroundImageFix" result="shape"/>
<feGaussianBlur stdDeviation="2" result="effect1_foregroundBlur_28005_2278"/>
</filter>
<linearGradient id="paint0_linear_28005_2278" x1="13.1595" y1="1.59961" x2="13.1595" y2="33.7756" gradientUnits="userSpaceOnUse">
<stop stop-color="#B5EBFF"/>
<stop offset="0.413462" stop-color="#AA54FC"/>
<stop offset="0.706731" stop-color="#E466F3"/>
<stop offset="1" stop-color="#FDA1F8"/>
</linearGradient>
<linearGradient id="paint1_linear_28005_2278" x1="13.5461" y1="4.1178" x2="13.5461" y2="25.8287" gradientUnits="userSpaceOnUse">
<stop offset="0.173077" stop-color="#13F2FE"/>
<stop offset="0.471154" stop-color="#1C6BFF"/>
<stop offset="1" stop-color="#6D56FE"/>
</linearGradient>
</defs>
</svg>
