<svg width="28" height="38" viewBox="0 0 28 38" fill="none" xmlns="http://www.w3.org/2000/svg">
<path d="M0.777344 15.6923C0.777344 8.2321 6.825 2.18445 14.2852 2.18445C21.7453 2.18445 27.793 8.2321 27.793 15.6923V24.1526C27.793 31.6127 21.7453 37.6604 14.2852 37.6604C6.825 37.6604 0.777344 31.6127 0.777344 24.1526V15.6923Z" fill="url(#paint0_linear_28005_1976)"/>
<g filter="url(#filter0_f_28005_1976)">
<path d="M6.22266 13.4509C6.22266 8.76197 10.0238 4.96082 14.7128 4.96082V4.96082C19.4017 4.96082 23.2029 8.76197 23.2029 13.4509V20.4083C23.2029 25.0972 19.4017 28.8984 14.7128 28.8984V28.8984C10.0238 28.8984 6.22266 25.0972 6.22266 20.4083V13.4509Z" fill="url(#paint1_linear_28005_1976)"/>
</g>
<defs>
<filter id="filter0_f_28005_1976" x="2.22266" y="0.960815" width="24.9805" height="31.9376" filterUnits="userSpaceOnUse" color-interpolation-filters="sRGB">
<feFlood flood-opacity="0" result="BackgroundImageFix"/>
<feBlend mode="normal" in="SourceGraphic" in2="BackgroundImageFix" result="shape"/>
<feGaussianBlur stdDeviation="2" result="effect1_foregroundBlur_28005_1976"/>
</filter>
<linearGradient id="paint0_linear_28005_1976" x1="14.2852" y1="2.18445" x2="14.2852" y2="37.6604" gradientUnits="userSpaceOnUse">
<stop stop-color="#B5EBFF"/>
<stop offset="0.413462" stop-color="#AA54FC"/>
<stop offset="0.706731" stop-color="#E466F3"/>
<stop offset="1" stop-color="#FDA1F8"/>
</linearGradient>
<linearGradient id="paint1_linear_28005_1976" x1="14.7128" y1="4.96082" x2="14.7128" y2="28.8984" gradientUnits="userSpaceOnUse">
<stop offset="0.173077" stop-color="#13F2FE"/>
<stop offset="0.471154" stop-color="#1C6BFF"/>
<stop offset="1" stop-color="#6D56FE"/>
</linearGradient>
</defs>
</svg>
